<svg width="100" height="100" viewBox="0 0 100 100" fill="none" xmlns="http://www.w3.org/2000/svg">
<rect width="100" height="100" fill="#AA34C3"/>
<path fill-rule="evenodd" clip-rule="evenodd" d="M49.5 90C68.5538 90 84 74.5538 84 55.5C84 36.4462 68.5538 21 49.5 21C30.4462 21 15 36.4462 15 55.5C15 74.5538 30.4462 90 49.5 90ZM49.5 81C63.5833 81 75 69.5833 75 55.5C75 41.4167 63.5833 30 49.5 30C35.4167 30 24 41.4167 24 55.5C24 69.5833 35.4167 81 49.5 81Z" fill="#FFFCFC"/>
<circle cx="50" cy="56" r="6" fill="#FFFDFD"/>
<path fill-rule="evenodd" clip-rule="evenodd" d="M46.4127 54.2067C47.0552 53.4998 47.7233 52.7866 48.4141 52.0715C55.9882 44.2313 63.4292 39.1324 65.0341 40.6828C66.6389 42.2332 61.8 49.8458 54.2259 57.686C53.5298 58.4065 52.8349 59.1039 52.1454 59.7751C49.7969 58.4324 47.8213 56.5117 46.4127 54.2067Z" fill="#FAFAFA"/>
<rect x="42" y="10" width="15" height="8" fill="#FDFDFD"/>
<rect x="73" y="26.4219" width="8.68979" height="8.85105" transform="rotate(-45.5744 73 26.4219)" fill="white"/>
</svg>
